{
  "version": "1.dev.ddf06a9",
  "modules": [
    {
      "plugin": "SurgeRack",
      "version": "1.alpha.LOCALBUILD",
      "model": "SurgeClock",
      "params": [
        {
          "id": 0,
          "value": 1.0
        },
        {
          "id": 1,
          "value": 0.719030321
        }
      ],
      "data": {
        "comment": "No Comment",
        "buildInfo": "os:macos pluggit:69087d5 surgegit:abafbc9 buildtime=May 29 2019 09:59:42"
      },
      "leftModuleId": 26,
      "rightModuleId": 19,
      "id": 1,
      "pos": [
        23,
        0
      ]
    },
    {
      "plugin": "SurgeRack",
      "version": "1.alpha.LOCALBUILD",
      "model": "SurgeADSR",
      "params": [
        {
          "id": 0,
          "value": 0.31249994
        },
        {
          "id": 1,
          "value": 0.324499965
        },
        {
          "id": 2,
          "value": 0.615500212
        },
        {
          "id": 3,
          "value": 0.357499927
        },
        {
          "id": 4,
          "value": 0.0
        },
        {
          "id": 5,
          "value": 0.0
        },
        {
          "id": 6,
          "value": 0.0
        },
        {
          "id": 7,
          "value": 0.0
        },
        {
          "id": 8,
          "value": 0.0
        },
        {
          "id": 9,
          "value": 0.0
        },
        {
          "id": 10,
          "value": 0.0
        }
      ],
      "data": {
        "comment": "No Comment",
        "buildInfo": "os:macos pluggit:69087d5 surgegit:abafbc9 buildtime=May 29 2019 09:59:42"
      },
      "leftModuleId": 1,
      "rightModuleId": 25,
      "id": 19,
      "pos": [
        26,
        0
      ]
    },
    {
      "plugin": "Fundamental",
      "version": "1.0.0",
      "model": "VCA-1",
      "params": [
        {
          "id": 0,
          "value": 1.0
        },
        {
          "id": 1,
          "value": 1.0
        }
      ],
      "leftModuleId": 23,
      "rightModuleId": 27,
      "id": 20,
      "pos": [
        57,
        0
      ]
    },
    {
      "plugin": "SurgeRack",
      "version": "1.alpha.LOCALBUILD",
      "model": "SurgeOSC",
      "params": [
        {
          "id": 0,
          "value": 1.0
        },
        {
          "id": 1,
          "value": 2.0
        },
        {
          "id": 2,
          "value": 60.0
        },
        {
          "id": 3,
          "value": 0.0
        },
        {
          "id": 4,
          "value": 0.0
        },
        {
          "id": 5,
          "value": 0.00499999989
        },
        {
          "id": 6,
          "value": 0.0
        },
        {
          "id": 7,
          "value": 0.00499999989
        },
        {
          "id": 8,
          "value": 0.5
        },
        {
          "id": 9,
          "value": 0.0
        },
        {
          "id": 10,
          "value": 0.0
        }
      ],
      "data": {
        "comment": "No Comment",
        "buildInfo": "os:macos pluggit:69087d5 surgegit:abafbc9 buildtime=May 29 2019 09:59:42"
      },
      "leftModuleId": 25,
      "rightModuleId": 23,
      "id": 22,
      "pos": [
        42,
        0
      ]
    },
    {
      "plugin": "Fundamental",
      "version": "1.0.0",
      "model": "VCA-1",
      "params": [
        {
          "id": 0,
          "value": 1.0
        },
        {
          "id": 1,
          "value": 1.0
        }
      ],
      "leftModuleId": 22,
      "rightModuleId": 20,
      "id": 23,
      "pos": [
        54,
        0
      ]
    },
    {
      "plugin": "SurgeRack",
      "version": "1.alpha.LOCALBUILD",
      "model": "SurgeADSR",
      "params": [
        {
          "id": 0,
          "value": 0.277999878
        },
        {
          "id": 1,
          "value": 0.39350003
        },
        {
          "id": 2,
          "value": 0.636500001
        },
        {
          "id": 3,
          "value": 0.282499939
        },
        {
          "id": 4,
          "value": 1.0
        },
        {
          "id": 5,
          "value": 0.0
        },
        {
          "id": 6,
          "value": 0.0
        },
        {
          "id": 7,
          "value": 0.0
        },
        {
          "id": 8,
          "value": 0.0
        },
        {
          "id": 9,
          "value": 0.0
        },
        {
          "id": 10,
          "value": 0.0
        }
      ],
      "data": {
        "comment": "No Comment",
        "buildInfo": "os:macos pluggit:69087d5 surgegit:abafbc9 buildtime=May 29 2019 09:59:42"
      },
      "leftModuleId": 19,
      "rightModuleId": 22,
      "id": 25,
      "pos": [
        34,
        0
      ]
    },
    {
      "plugin": "SurgeRack",
      "version": "1.alpha.LOCALBUILD",
      "model": "SurgeClock",
      "params": [
        {
          "id": 0,
          "value": 0.383999974
        },
        {
          "id": 1,
          "value": 0.382400036
        }
      ],
      "data": {
        "comment": "No Comment",
        "buildInfo": "os:macos pluggit:69087d5 surgegit:abafbc9 buildtime=May 29 2019 09:59:42"
      },
      "rightModuleId": 1,
      "id": 26,
      "pos": [
        20,
        0
      ]
    },
    {
      "plugin": "Core",
      "version": "1.dev.ddf06a9",
      "model": "AudioInterface",
      "params": [],
      "data": {
        "audio": {
          "driver": 5,
          "offset": 2699296,
          "maxChannels": 8,
          "sampleRate": 44100,
          "blockSize": 256
        }
      },
      "leftModuleId": 20,
      "id": 27,
      "pos": [
        60,
        0
      ]
    },
    {
      "plugin": "SurgeRack",
      "version": "1.alpha.LOCALBUILD",
      "model": "SurgeLFO",
      "params": [
        {
          "id": 0,
          "value": 0.319999874
        },
        {
          "id": 1,
          "value": 0.714285731
        },
        {
          "id": 2,
          "value": 0.0
        },
        {
          "id": 3,
          "value": 0.629500151
        },
        {
          "id": 4,
          "value": 0.547999978
        },
        {
          "id": 5,
          "value": 0.0
        },
        {
          "id": 6,
          "value": 1.0
        },
        {
          "id": 7,
          "value": 0.0
        },
        {
          "id": 8,
          "value": 0.100000001
        },
        {
          "id": 9,
          "value": 0.288500011
        },
        {
          "id": 10,
          "value": 0.351500064
        },
        {
          "id": 11,
          "value": 0.802000165
        },
        {
          "id": 12,
          "value": 0.274499953
        },
        {
          "id": 13,
          "value": 0.0
        },
        {
          "id": 14,
          "value": 0.0
        },
        {
          "id": 15,
          "value": 0.0
        },
        {
          "id": 16,
          "value": 0.0
        },
        {
          "id": 17,
          "value": 0.0
        },
        {
          "id": 18,
          "value": 0.0
        },
        {
          "id": 19,
          "value": 0.0
        }
      ],
      "data": {
        "comment": "No Comment",
        "buildInfo": "os:macos pluggit:69087d5 surgegit:abafbc9 buildtime=May 29 2019 09:59:42"
      },
      "leftModuleId": 30,
      "rightModuleId": 18,
      "id": 28,
      "pos": [
        22,
        1
      ]
    },
    {
      "plugin": "Fundamental",
      "version": "1.0.0",
      "model": "SEQ3",
      "params": [
        {
          "id": 0,
          "value": 2.0
        },
        {
          "id": 1,
          "value": 0.0
        },
        {
          "id": 2,
          "value": 0.0
        },
        {
          "id": 3,
          "value": 8.0
        },
        {
          "id": 4,
          "value": 0.0
        },
        {
          "id": 5,
          "value": 0.494999886
        },
        {
          "id": 6,
          "value": 1.48500025
        },
        {
          "id": 7,
          "value": 0.0
        },
        {
          "id": 8,
          "value": 0.195000008
        },
        {
          "id": 9,
          "value": 0.210000008
        },
        {
          "id": 10,
          "value": 0.0
        },
        {
          "id": 11,
          "value": 0.419999838
        },
        {
          "id": 12,
          "value": 1.4999994
        },
        {
          "id": 13,
          "value": 0.0
        },
        {
          "id": 14,
          "value": 2.05500007
        },
        {
          "id": 15,
          "value": 2.2349999
        },
        {
          "id": 16,
          "value": 1.67999995
        },
        {
          "id": 17,
          "value": 0.975000024
        },
        {
          "id": 18,
          "value": 0.0
        },
        {
          "id": 19,
          "value": 0.0
        },
        {
          "id": 20,
          "value": 0.884999871
        },
        {
          "id": 21,
          "value": 0.0
        },
        {
          "id": 22,
          "value": 0.449999988
        },
        {
          "id": 23,
          "value": 0.0
        },
        {
          "id": 24,
          "value": 0.720000029
        },
        {
          "id": 25,
          "value": 0.0
        },
        {
          "id": 26,
          "value": 0.419999957
        },
        {
          "id": 27,
          "value": 0.0
        },
        {
          "id": 28,
          "value": 0.0
        },
        {
          "id": 29,
          "value": 0.0
        },
        {
          "id": 30,
          "value": 0.0
        },
        {
          "id": 31,
          "value": 0.0
        },
        {
          "id": 32,
          "value": 0.0
        },
        {
          "id": 33,
          "value": 0.0
        },
        {
          "id": 34,
          "value": 0.0
        },
        {
          "id": 35,
          "value": 0.0
        }
      ],
      "data": {
        "running": true,
        "gates": [
          1,
          1,
          1,
          1,
          1,
          1,
          1,
          1
        ]
      },
      "rightModuleId": 28,
      "id": 30,
      "pos": [
        0,
        1
      ]
    },
    {
      "plugin": "SurgeRack",
      "version": "1.alpha.LOCALBUILD",
      "model": "SurgeDelay",
      "params": [
        {
          "id": 0,
          "value": 0.0
        },
        {
          "id": 1,
          "value": 0.512538552
        },
        {
          "id": 2,
          "value": 0.461538464
        },
        {
          "id": 3,
          "value": 0.423000097
        },
        {
          "id": 4,
          "value": 0.388500005
        },
        {
          "id": 5,
          "value": 0.458423465
        },
        {
          "id": 6,
          "value": 0.588807642
        },
        {
          "id": 7,
          "value": 0.377000004
        },
        {
          "id": 8,
          "value": 0.428999901
        },
        {
          "id": 9,
          "value": 0.460500091
        },
        {
          "id": 10,
          "value": 0.588500679
        },
        {
          "id": 11,
          "value": 0.0
        },
        {
          "id": 12,
          "value": 1.0
        },
        {
          "id": 13,
          "value": 1.0
        },
        {
          "id": 14,
          "value": 0.0
        },
        {
          "id": 15,
          "value": 0.0
        },
        {
          "id": 16,
          "value": 0.0
        },
        {
          "id": 17,
          "value": 0.0
        },
        {
          "id": 18,
          "value": 0.0
        },
        {
          "id": 19,
          "value": 0.0
        },
        {
          "id": 20,
          "value": 0.0
        },
        {
          "id": 21,
          "value": 0.0
        },
        {
          "id": 22,
          "value": 0.0
        },
        {
          "id": 23,
          "value": 0.0
        },
        {
          "id": 24,
          "value": 0.0
        },
        {
          "id": 25,
          "value": 0.0
        },
        {
          "id": 26,
          "value": 1.0
        }
      ],
      "data": {
        "comment": "No Comment",
        "buildInfo": "os:macos pluggit:69087d5 surgegit:abafbc9 buildtime=May 29 2019 09:59:42"
      },
      "leftModuleId": 28,
      "rightModuleId": 31,
      "id": 18,
      "pos": [
        40,
        1
      ]
    },
    {
      "plugin": "SurgeRack",
      "version": "1.alpha.LOCALBUILD",
      "model": "SurgeChorus",
      "params": [
        {
          "id": 0,
          "value": 0.450999916
        },
        {
          "id": 1,
          "value": 0.602000058
        },
        {
          "id": 2,
          "value": 0.444000125
        },
        {
          "id": 3,
          "value": 0.5
        },
        {
          "id": 4,
          "value": 0.0721153766
        },
        {
          "id": 5,
          "value": 1.0
        },
        {
          "id": 6,
          "value": 0.720999539
        },
        {
          "id": 7,
          "value": 0.5
        },
        {
          "id": 8,
          "value": 0.0
        },
        {
          "id": 9,
          "value": 0.0
        },
        {
          "id": 10,
          "value": 0.0
        },
        {
          "id": 11,
          "value": 0.0
        },
        {
          "id": 12,
          "value": 1.0
        },
        {
          "id": 13,
          "value": 1.0
        },
        {
          "id": 14,
          "value": 0.0
        },
        {
          "id": 15,
          "value": 0.0
        },
        {
          "id": 16,
          "value": 0.0
        },
        {
          "id": 17,
          "value": 0.0
        },
        {
          "id": 18,
          "value": 0.0
        },
        {
          "id": 19,
          "value": 0.0
        },
        {
          "id": 20,
          "value": 0.0
        },
        {
          "id": 21,
          "value": 0.0
        },
        {
          "id": 22,
          "value": 0.0
        },
        {
          "id": 23,
          "value": 0.0
        },
        {
          "id": 24,
          "value": 0.0
        },
        {
          "id": 25,
          "value": 0.0
        },
        {
          "id": 26,
          "value": 1.0
        }
      ],
      "data": {
        "comment": "No Comment",
        "buildInfo": "os:macos pluggit:69087d5 surgegit:abafbc9 buildtime=May 29 2019 09:59:42"
      },
      "leftModuleId": 18,
      "id": 31,
      "pos": [
        59,
        1
      ]
    }
  ],
  "id": 22,
  "cables": [
    {
      "outputModuleId": 19,
      "outputId": 0,
      "inputModuleId": 20,
      "inputId": 0,
      "color": "#c91847"
    },
    {
      "outputModuleId": 1,
      "outputId": 1,
      "inputModuleId": 19,
      "inputId": 0,
      "color": "#0986ad"
    },
    {
      "outputModuleId": 26,
      "outputId": 1,
      "inputModuleId": 25,
      "inputId": 0,
      "color": "#c9b70e"
    },
    {
      "outputModuleId": 25,
      "outputId": 0,
      "inputModuleId": 23,
      "inputId": 0,
      "color": "#0986ad"
    },
    {
      "outputModuleId": 22,
      "outputId": 0,
      "inputModuleId": 23,
      "inputId": 1,
      "color": "#c9b70e"
    },
    {
      "outputModuleId": 22,
      "outputId": 1,
      "inputModuleId": 20,
      "inputId": 1,
      "color": "#c91847"
    },
    {
      "outputModuleId": 28,
      "outputId": 0,
      "inputModuleId": 22,
      "inputId": 1,
      "color": "#0c8e15"
    },
    {
      "outputModuleId": 1,
      "outputId": 1,
      "inputModuleId": 28,
      "inputId": 0,
      "color": "#c9b70e"
    },
    {
      "outputModuleId": 1,
      "outputId": 1,
      "inputModuleId": 30,
      "inputId": 1,
      "color": "#c91847"
    },
    {
      "outputModuleId": 30,
      "outputId": 1,
      "inputModuleId": 22,
      "inputId": 0,
      "color": "#0986ad"
    },
    {
      "outputModuleId": 30,
      "outputId": 2,
      "inputModuleId": 25,
      "inputId": 2,
      "color": "#c9b70e"
    },
    {
      "outputModuleId": 30,
      "outputId": 3,
      "inputModuleId": 18,
      "inputId": 4,
      "color": "#c91847"
    },
    {
      "outputModuleId": 30,
      "outputId": 3,
      "inputModuleId": 18,
      "inputId": 3,
      "color": "#0986ad"
    },
    {
      "outputModuleId": 20,
      "outputId": 0,
      "inputModuleId": 18,
      "inputId": 1,
      "color": "#0c8e15"
    },
    {
      "outputModuleId": 23,
      "outputId": 0,
      "inputModuleId": 18,
      "inputId": 0,
      "color": "#0986ad"
    },
    {
      "outputModuleId": 18,
      "outputId": 1,
      "inputModuleId": 31,
      "inputId": 1,
      "color": "#0c8e15"
    },
    {
      "outputModuleId": 18,
      "outputId": 0,
      "inputModuleId": 31,
      "inputId": 0,
      "color": "#c91847"
    },
    {
      "outputModuleId": 31,
      "outputId": 0,
      "inputModuleId": 27,
      "inputId": 0,
      "color": "#0986ad"
    },
    {
      "outputModuleId": 31,
      "outputId": 1,
      "inputModuleId": 27,
      "inputId": 1,
      "color": "#0c8e15"
    }
  ]
}