{
  "version": "1.dev.ddf06a9",
  "modules": [
    {
      "plugin": "Fundamental",
      "version": "1.0.0",
      "model": "SEQ3",
      "params": [
        {
          "id": 0,
          "value": 0.812000155
        },
        {
          "id": 1,
          "value": 0.0
        },
        {
          "id": 2,
          "value": 0.0
        },
        {
          "id": 3,
          "value": 4.0
        },
        {
          "id": 4,
          "value": 0.200000003
        },
        {
          "id": 5,
          "value": 0.5
        },
        {
          "id": 6,
          "value": 1.0
        },
        {
          "id": 7,
          "value": 0.0
        },
        {
          "id": 8,
          "value": 0.0
        },
        {
          "id": 9,
          "value": 0.0
        },
        {
          "id": 10,
          "value": 0.0
        },
        {
          "id": 11,
          "value": 0.0
        },
        {
          "id": 12,
          "value": 0.0
        },
        {
          "id": 13,
          "value": 0.0
        },
        {
          "id": 14,
          "value": 0.0
        },
        {
          "id": 15,
          "value": 0.0
        },
        {
          "id": 16,
          "value": 0.0
        },
        {
          "id": 17,
          "value": 0.0
        },
        {
          "id": 18,
          "value": 0.0
        },
        {
          "id": 19,
          "value": 0.0
        },
        {
          "id": 20,
          "value": 0.0
        },
        {
          "id": 21,
          "value": 0.0
        },
        {
          "id": 22,
          "value": 0.0
        },
        {
          "id": 23,
          "value": 0.0
        },
        {
          "id": 24,
          "value": 0.0
        },
        {
          "id": 25,
          "value": 0.0
        },
        {
          "id": 26,
          "value": 0.0
        },
        {
          "id": 27,
          "value": 0.0
        },
        {
          "id": 28,
          "value": 0.0
        },
        {
          "id": 29,
          "value": 0.0
        },
        {
          "id": 30,
          "value": 0.0
        },
        {
          "id": 31,
          "value": 0.0
        },
        {
          "id": 32,
          "value": 0.0
        },
        {
          "id": 33,
          "value": 0.0
        },
        {
          "id": 34,
          "value": 0.0
        },
        {
          "id": 35,
          "value": 0.0
        }
      ],
      "data": {
        "running": true,
        "gates": [
          1,
          1,
          1,
          1,
          1,
          1,
          1,
          1
        ]
      },
      "leftModuleId": 41,
      "rightModuleId": 34,
      "id": 33,
      "pos": [
        3,
        0
      ]
    },
    {
      "plugin": "SurgeRack",
      "version": "1.alpha.LOCALBUILD",
      "model": "SurgeWTOSC",
      "params": [
        {
          "id": 0,
          "value": 1.0
        },
        {
          "id": 1,
          "value": 48.0930443
        },
        {
          "id": 2,
          "value": 0.0
        },
        {
          "id": 3,
          "value": 0.0
        },
        {
          "id": 4,
          "value": 0.5
        },
        {
          "id": 5,
          "value": 0.0
        },
        {
          "id": 6,
          "value": 0.0
        },
        {
          "id": 7,
          "value": 0.5
        },
        {
          "id": 8,
          "value": 0.200000003
        },
        {
          "id": 9,
          "value": 0.00499999989
        },
        {
          "id": 10,
          "value": 0.742500365
        },
        {
          "id": 11,
          "value": 0.138000026
        },
        {
          "id": 12,
          "value": 0.0
        },
        {
          "id": 13,
          "value": 0.0
        }
      ],
      "data": {
        "comment": "No Comment",
        "buildInfo": "os:macos pluggit:294594a surgegit:b946ee3 buildtime=May 22 2019 16:57:55"
      },
      "leftModuleId": 33,
      "rightModuleId": 40,
      "id": 34,
      "pos": [
        25,
        0
      ]
    },
    {
      "plugin": "Core",
      "version": "1.dev.ddf06a9",
      "model": "AudioInterface",
      "params": [],
      "data": {
        "audio": {
          "driver": 5,
          "deviceName": "Apple Inc.: DisplayPort",
          "offset": 0,
          "maxChannels": 8,
          "sampleRate": 44100,
          "blockSize": 256
        }
      },
      "leftModuleId": 36,
      "rightModuleId": 42,
      "id": 35,
      "pos": [
        20,
        1
      ]
    },
    {
      "plugin": "Fundamental",
      "version": "1.0.0",
      "model": "VCMixer",
      "params": [
        {
          "id": 0,
          "value": 0.513999701
        },
        {
          "id": 1,
          "value": 0.0169705618
        },
        {
          "id": 2,
          "value": 1.0
        },
        {
          "id": 3,
          "value": 1.0
        },
        {
          "id": 4,
          "value": 1.0
        }
      ],
      "leftModuleId": 37,
      "rightModuleId": 35,
      "id": 36,
      "pos": [
        10,
        1
      ]
    },
    {
      "plugin": "Fundamental",
      "version": "1.0.0",
      "model": "VCMixer",
      "params": [
        {
          "id": 0,
          "value": 0.501999557
        },
        {
          "id": 1,
          "value": 0.0254558418
        },
        {
          "id": 2,
          "value": 1.0
        },
        {
          "id": 3,
          "value": 1.0
        },
        {
          "id": 4,
          "value": 1.0
        }
      ],
      "rightModuleId": 36,
      "id": 37,
      "pos": [
        0,
        1
      ]
    },
    {
      "plugin": "Fundamental",
      "version": "1.0.0",
      "model": "VCA-1",
      "params": [
        {
          "id": 0,
          "value": 1.0
        },
        {
          "id": 1,
          "value": 1.0
        }
      ],
      "leftModuleId": 39,
      "id": 38,
      "pos": [
        53,
        0
      ]
    },
    {
      "plugin": "Fundamental",
      "version": "1.0.0",
      "model": "VCA-1",
      "params": [
        {
          "id": 0,
          "value": 1.0
        },
        {
          "id": 1,
          "value": 1.0
        }
      ],
      "leftModuleId": 40,
      "rightModuleId": 38,
      "id": 39,
      "pos": [
        50,
        0
      ]
    },
    {
      "plugin": "SurgeRack",
      "version": "1.alpha.LOCALBUILD",
      "model": "SurgeADSR",
      "params": [
        {
          "id": 0,
          "value": 0.232999846
        },
        {
          "id": 1,
          "value": 0.518000126
        },
        {
          "id": 2,
          "value": 0.790999889
        },
        {
          "id": 3,
          "value": 0.465500057
        },
        {
          "id": 4,
          "value": 0.0
        },
        {
          "id": 5,
          "value": 0.0
        },
        {
          "id": 6,
          "value": 0.0
        },
        {
          "id": 7,
          "value": 0.0
        }
      ],
      "data": {
        "comment": "No Comment",
        "buildInfo": "os:macos pluggit:294594a surgegit:b946ee3 buildtime=May 22 2019 16:57:55"
      },
      "leftModuleId": 34,
      "rightModuleId": 39,
      "id": 40,
      "pos": [
        43,
        0
      ]
    },
    {
      "plugin": "SurgeRack",
      "version": "1.alpha.LOCALBUILD",
      "model": "SurgeClock",
      "params": [
        {
          "id": 0,
          "value": 0.172000006
        },
        {
          "id": 1,
          "value": 0.810170531
        }
      ],
      "data": {
        "comment": "No Comment",
        "buildInfo": "os:macos pluggit:294594a surgegit:b946ee3 buildtime=May 22 2019 16:57:55"
      },
      "rightModuleId": 33,
      "id": 41,
      "pos": [
        0,
        0
      ]
    },
    {
      "plugin": "SurgeRack",
      "version": "1.alpha.LOCALBUILD",
      "model": "SurgeRotary",
      "params": [
        {
          "id": 0,
          "value": 0.521000028
        },
        {
          "id": 1,
          "value": 0.487000436
        },
        {
          "id": 2,
          "value": 0.468500793
        },
        {
          "id": 3,
          "value": 0.0
        },
        {
          "id": 4,
          "value": 0.0
        },
        {
          "id": 5,
          "value": 0.0
        },
        {
          "id": 6,
          "value": 0.0
        },
        {
          "id": 7,
          "value": 0.0
        },
        {
          "id": 8,
          "value": 0.0
        },
        {
          "id": 9,
          "value": 0.0
        },
        {
          "id": 10,
          "value": 0.0
        },
        {
          "id": 11,
          "value": 0.0
        },
        {
          "id": 12,
          "value": 1.0
        },
        {
          "id": 13,
          "value": 1.0
        },
        {
          "id": 14,
          "value": 0.0
        },
        {
          "id": 15,
          "value": 0.0
        },
        {
          "id": 16,
          "value": 0.0
        },
        {
          "id": 17,
          "value": 0.0
        },
        {
          "id": 18,
          "value": 0.0
        },
        {
          "id": 19,
          "value": 0.0
        },
        {
          "id": 20,
          "value": 0.0
        },
        {
          "id": 21,
          "value": 0.0
        },
        {
          "id": 22,
          "value": 0.0
        },
        {
          "id": 23,
          "value": 0.0
        },
        {
          "id": 24,
          "value": 0.0
        },
        {
          "id": 25,
          "value": 0.0
        },
        {
          "id": 26,
          "value": 1.0
        }
      ],
      "data": {
        "comment": "No Comment",
        "buildInfo": "os:macos pluggit:294594a surgegit:b946ee3 buildtime=May 22 2019 16:57:55"
      },
      "leftModuleId": 35,
      "rightModuleId": 45,
      "id": 42,
      "pos": [
        30,
        1
      ]
    },
    {
      "plugin": "SurgeRack",
      "version": "1.alpha.LOCALBUILD",
      "model": "SurgeLFO",
      "params": [
        {
          "id": 0,
          "value": 0.249499917
        },
        {
          "id": 1,
          "value": 0.0
        },
        {
          "id": 2,
          "value": 0.0
        },
        {
          "id": 3,
          "value": 1.0
        },
        {
          "id": 4,
          "value": 0.5
        },
        {
          "id": 5,
          "value": 0.0
        },
        {
          "id": 6,
          "value": 0.0
        },
        {
          "id": 7,
          "value": 0.0
        },
        {
          "id": 8,
          "value": 0.100000001
        },
        {
          "id": 9,
          "value": 0.200000003
        },
        {
          "id": 10,
          "value": 0.200000003
        },
        {
          "id": 11,
          "value": 0.699999988
        },
        {
          "id": 12,
          "value": 0.300000012
        },
        {
          "id": 13,
          "value": 0.0
        },
        {
          "id": 14,
          "value": 0.0
        },
        {
          "id": 15,
          "value": 0.0
        },
        {
          "id": 16,
          "value": 0.0
        },
        {
          "id": 17,
          "value": 0.0
        },
        {
          "id": 18,
          "value": 0.0
        },
        {
          "id": 19,
          "value": 0.0
        }
      ],
      "data": {
        "comment": "No Comment",
        "buildInfo": "os:macos pluggit:294594a surgegit:b946ee3 buildtime=May 22 2019 16:57:55"
      },
      "leftModuleId": 45,
      "id": 44,
      "pos": [
        46,
        1
      ]
    },
    {
      "plugin": "Fundamental",
      "version": "1.0.0",
      "model": "8vert",
      "params": [
        {
          "id": 0,
          "value": 0.956999898
        },
        {
          "id": 1,
          "value": -0.981000066
        },
        {
          "id": 2,
          "value": 0.0
        },
        {
          "id": 3,
          "value": 0.0
        },
        {
          "id": 4,
          "value": 0.0
        },
        {
          "id": 5,
          "value": 0.0
        },
        {
          "id": 6,
          "value": 0.0
        },
        {
          "id": 7,
          "value": 0.0
        }
      ],
      "leftModuleId": 42,
      "rightModuleId": 44,
      "id": 45,
      "pos": [
        38,
        1
      ]
    }
  ],
  "id": 23,
  "cables": [
    {
      "outputModuleId": 36,
      "outputId": 0,
      "inputModuleId": 35,
      "inputId": 1,
      "color": "#c9b70e"
    },
    {
      "outputModuleId": 37,
      "outputId": 0,
      "inputModuleId": 35,
      "inputId": 0,
      "color": "#0c8e15"
    },
    {
      "outputModuleId": 34,
      "outputId": 1,
      "inputModuleId": 38,
      "inputId": 1,
      "color": "#c91847"
    },
    {
      "outputModuleId": 34,
      "outputId": 0,
      "inputModuleId": 39,
      "inputId": 1,
      "color": "#0986ad"
    },
    {
      "outputModuleId": 40,
      "outputId": 0,
      "inputModuleId": 39,
      "inputId": 0,
      "color": "#c9b70e"
    },
    {
      "outputModuleId": 40,
      "outputId": 0,
      "inputModuleId": 38,
      "inputId": 0,
      "color": "#0c8e15"
    },
    {
      "outputModuleId": 39,
      "outputId": 0,
      "inputModuleId": 37,
      "inputId": 1,
      "color": "#0986ad"
    },
    {
      "outputModuleId": 41,
      "outputId": 1,
      "inputModuleId": 40,
      "inputId": 0,
      "color": "#c91847"
    },
    {
      "outputModuleId": 41,
      "outputId": 1,
      "inputModuleId": 33,
      "inputId": 1,
      "color": "#0c8e15"
    },
    {
      "outputModuleId": 33,
      "outputId": 1,
      "inputModuleId": 34,
      "inputId": 0,
      "color": "#c91847"
    },
    {
      "outputModuleId": 38,
      "outputId": 0,
      "inputModuleId": 42,
      "inputId": 1,
      "color": "#0986ad"
    },
    {
      "outputModuleId": 39,
      "outputId": 0,
      "inputModuleId": 42,
      "inputId": 0,
      "color": "#c9b70e"
    },
    {
      "outputModuleId": 38,
      "outputId": 0,
      "inputModuleId": 36,
      "inputId": 1,
      "color": "#c9b70e"
    },
    {
      "outputModuleId": 42,
      "outputId": 0,
      "inputModuleId": 37,
      "inputId": 2,
      "color": "#c91847"
    },
    {
      "outputModuleId": 42,
      "outputId": 1,
      "inputModuleId": 36,
      "inputId": 2,
      "color": "#0986ad"
    },
    {
      "outputModuleId": 44,
      "outputId": 0,
      "inputModuleId": 45,
      "inputId": 0,
      "color": "#c91847"
    },
    {
      "outputModuleId": 44,
      "outputId": 0,
      "inputModuleId": 45,
      "inputId": 1,
      "color": "#0986ad"
    },
    {
      "outputModuleId": 45,
      "outputId": 1,
      "inputModuleId": 42,
      "inputId": 4,
      "color": "#c9b70e"
    },
    {
      "outputModuleId": 45,
      "outputId": 0,
      "inputModuleId": 42,
      "inputId": 3,
      "color": "#0c8e15"
    }
  ]
}