{
  "version": "1.dev.2cd29d6",
  "modules": [
    {
      "plugin": "Fundamental",
      "version": "1.0.0",
      "model": "ADSR",
      "params": [
        {
          "value": 0.0825000033
        },
        {
          "value": 0.585500002
        },
        {
          "value": 0.311000139
        },
        {
          "value": 0.609499812
        }
      ],
      "leftModuleId": 26,
      "rightModuleId": 20,
      "id": 19,
      "pos": [
        32,
        0
      ]
    },
    {
      "plugin": "Fundamental",
      "version": "1.0.0",
      "model": "VCA-1",
      "params": [
        {
          "value": 1.0
        },
        {
          "value": 1.0
        }
      ],
      "leftModuleId": 19,
      "rightModuleId": 30,
      "id": 20,
      "pos": [
        40,
        0
      ]
    },
    {
      "plugin": "Core",
      "version": "1.dev.2cd29d6",
      "model": "AudioInterface",
      "params": [],
      "data": {
        "audio": {
          "driver": 5,
          "deviceName": "Apple Inc.: Built-in Output",
          "offset": 0,
          "maxChannels": 8,
          "sampleRate": 44100,
          "blockSize": 256
        }
      },
      "leftModuleId": 28,
      "rightModuleId": 27,
      "id": 22,
      "pos": [
        20,
        1
      ]
    },
    {
      "plugin": "Fundamental",
      "version": "1.0.0",
      "model": "VCMixer",
      "params": [
        {
          "value": 1.0
        },
        {
          "value": 0.772160649
        },
        {
          "value": 0.950351536
        },
        {
          "value": 0.780645788
        },
        {
          "value": 1.0
        }
      ],
      "rightModuleId": 28,
      "id": 23,
      "pos": [
        0,
        1
      ]
    },
    {
      "plugin": "Fundamental",
      "version": "1.0.0",
      "model": "SEQ3",
      "params": [
        {
          "value": 1.6880008
        },
        {
          "value": 0.0
        },
        {
          "value": 0.0
        },
        {
          "value": 8.0
        },
        {
          "value": 0.0
        },
        {
          "value": 0.0
        },
        {
          "value": 1.87499881
        },
        {
          "value": 1.58999765
        },
        {
          "value": 1.15499973
        },
        {
          "value": 0.869999886
        },
        {
          "value": 1.01999998
        },
        {
          "value": 1.77000022
        },
        {
          "value": 0.0
        },
        {
          "value": 0.0
        },
        {
          "value": 0.0
        },
        {
          "value": 0.0
        },
        {
          "value": 0.0
        },
        {
          "value": 0.0
        },
        {
          "value": 0.0
        },
        {
          "value": 0.0
        },
        {
          "value": 0.0
        },
        {
          "value": 0.0
        },
        {
          "value": 0.0
        },
        {
          "value": 0.0
        },
        {
          "value": 0.0
        },
        {
          "value": 0.0
        },
        {
          "value": 0.0
        },
        {
          "value": 0.0
        },
        {
          "value": 0.0
        },
        {
          "value": 0.0
        },
        {
          "value": 0.0
        },
        {
          "value": 0.0
        },
        {
          "value": 0.0
        },
        {
          "value": 0.0
        },
        {
          "value": 0.0
        },
        {
          "value": 0.0
        }
      ],
      "data": {
        "running": true,
        "gates": [
          1,
          0,
          0,
          1,
          1,
          0,
          1,
          0
        ]
      },
      "rightModuleId": 26,
      "id": 25,
      "pos": [
        0,
        0
      ]
    },
    {
      "plugin": "Fundamental",
      "version": "1.0.0",
      "model": "VCO",
      "params": [
        {
          "value": 1.0
        },
        {
          "value": 0.0
        },
        {
          "value": -5.34599924
        },
        {
          "value": 0.0120000001
        },
        {
          "value": 0.0
        },
        {
          "value": 0.5
        },
        {
          "value": 0.0
        }
      ],
      "leftModuleId": 25,
      "rightModuleId": 19,
      "id": 26,
      "pos": [
        22,
        0
      ]
    },
    {
      "plugin": "Fundamental",
      "version": "1.0.0",
      "model": "Scope",
      "params": [
        {
          "value": 0.0
        },
        {
          "value": 0.0
        },
        {
          "value": -0.0
        },
        {
          "value": -0.240000576
        },
        {
          "value": 8.92999172
        },
        {
          "value": 0.0
        },
        {
          "value": 0.0
        },
        {
          "value": 0.0
        }
      ],
      "data": {
        "lissajous": 0,
        "external": 0
      },
      "leftModuleId": 22,
      "rightModuleId": 31,
      "id": 27,
      "pos": [
        30,
        1
      ]
    },
    {
      "plugin": "Fundamental",
      "version": "1.0.0",
      "model": "VCMixer",
      "params": [
        {
          "value": 1.0
        },
        {
          "value": 0.68180126
        },
        {
          "value": 0.924896121
        },
        {
          "value": 1.0
        },
        {
          "value": 1.0
        }
      ],
      "leftModuleId": 23,
      "rightModuleId": 22,
      "id": 28,
      "pos": [
        10,
        1
      ]
    },
    {
      "plugin": "SurgeRack",
      "version": "1.0.0",
      "model": "SurgeFX",
      "params": [
        {
          "value": 0.17550002
        },
        {
          "value": 0.309000015
        },
        {
          "value": 0.64800024
        },
        {
          "value": 0.410999984
        },
        {
          "value": 0.694999933
        },
        {
          "value": 0.685500264
        },
        {
          "value": 0.158499897
        },
        {
          "value": 0.506000161
        },
        {
          "value": 0.431999952
        },
        {
          "value": 0.327000022
        },
        {
          "value": 0.204000652
        },
        {
          "value": 0.554499984
        },
        {
          "value": 0.0
        },
        {
          "value": 0.0
        },
        {
          "value": 0.0
        },
        {
          "value": 0.0
        },
        {
          "value": 0.0
        },
        {
          "value": 0.0
        },
        {
          "value": 0.0
        },
        {
          "value": 0.0
        },
        {
          "value": 0.0
        },
        {
          "value": 0.0
        },
        {
          "value": 0.0
        },
        {
          "value": 0.0
        },
        {
          "value": 0.0
        },
        {
          "value": 0.955000103
        },
        {
          "value": 0.917306125
        },
        {
          "value": 0.248999983
        },
        {
          "value": 0.00449999981
        },
        {
          "value": 0.123000011
        },
        {
          "value": 0.0
        },
        {
          "value": 0.0
        },
        {
          "value": 0.0
        },
        {
          "value": 0.351000071
        },
        {
          "value": 0.0
        },
        {
          "value": 0.0
        },
        {
          "value": 0.0
        },
        {
          "value": 0.0
        },
        {
          "value": 0.0
        }
      ],
      "leftModuleId": 20,
      "id": 30,
      "pos": [
        43,
        0
      ]
    },
    {
      "plugin": "Fundamental",
      "version": "1.0.0",
      "model": "LFO",
      "params": [
        {
          "value": 1.0
        },
        {
          "value": 1.0
        },
        {
          "value": 2.34999943
        },
        {
          "value": 0.0
        },
        {
          "value": 0.0
        },
        {
          "value": 0.5
        },
        {
          "value": 0.0
        }
      ],
      "leftModuleId": 27,
      "id": 31,
      "pos": [
        43,
        1
      ]
    }
  ],
  "id": 16,
  "cables": [
    {
      "outputModuleId": 19,
      "outputId": 0,
      "inputModuleId": 20,
      "inputId": 0,
      "color": "#0986ad"
    },
    {
      "outputModuleId": 23,
      "outputId": 0,
      "inputModuleId": 22,
      "inputId": 0,
      "color": "#0c8e15"
    },
    {
      "outputModuleId": 25,
      "outputId": 0,
      "inputModuleId": 19,
      "inputId": 4,
      "color": "#c9b70e"
    },
    {
      "outputModuleId": 25,
      "outputId": 1,
      "inputModuleId": 26,
      "inputId": 0,
      "color": "#0c8e15"
    },
    {
      "outputModuleId": 20,
      "outputId": 0,
      "inputModuleId": 23,
      "inputId": 1,
      "color": "#0986ad"
    },
    {
      "outputModuleId": 20,
      "outputId": 0,
      "inputModuleId": 28,
      "inputId": 1,
      "color": "#c91847"
    },
    {
      "outputModuleId": 28,
      "outputId": 0,
      "inputModuleId": 22,
      "inputId": 1,
      "color": "#0c8e15"
    },
    {
      "outputModuleId": 26,
      "outputId": 1,
      "inputModuleId": 20,
      "inputId": 1,
      "color": "#c91847"
    },
    {
      "outputModuleId": 20,
      "outputId": 0,
      "inputModuleId": 30,
      "inputId": 0,
      "color": "#0c8e15"
    },
    {
      "outputModuleId": 20,
      "outputId": 0,
      "inputModuleId": 30,
      "inputId": 1,
      "color": "#0986ad"
    },
    {
      "outputModuleId": 30,
      "outputId": 0,
      "inputModuleId": 23,
      "inputId": 2,
      "color": "#c9b70e"
    },
    {
      "outputModuleId": 30,
      "outputId": 1,
      "inputModuleId": 28,
      "inputId": 2,
      "color": "#c91847"
    },
    {
      "outputModuleId": 23,
      "outputId": 0,
      "inputModuleId": 27,
      "inputId": 0,
      "color": "#0c8e15"
    },
    {
      "outputModuleId": 20,
      "outputId": 0,
      "inputModuleId": 27,
      "inputId": 1,
      "color": "#0986ad"
    },
    {
      "outputModuleId": 31,
      "outputId": 0,
      "inputModuleId": 30,
      "inputId": 3,
      "color": "#0c8e15"
    },
    {
      "outputModuleId": 31,
      "outputId": 1,
      "inputModuleId": 30,
      "inputId": 8,
      "color": "#c9b70e"
    },
    {
      "outputModuleId": 31,
      "outputId": 3,
      "inputModuleId": 30,
      "inputId": 4,
      "color": "#c9b70e"
    }
  ]
}