{
  "version": "1.dev.ddf06a9",
  "modules": [
    {
      "plugin": "SurgeRack",
      "version": "1.0.0",
      "model": "SurgeClock",
      "params": [
        {
          "id": 0,
          "value": 0.651999652
        },
        {
          "id": 1,
          "value": 0.5
        }
      ],
      "data": {
        "comment": "No Comment",
        "buildVersion": "macos: 1.0-alpha.95180d5.b946ee3"
      },
      "rightModuleId": 26,
      "id": 20,
      "pos": [
        1,
        0
      ]
    },
    {
      "plugin": "SurgeRack",
      "version": "1.0.0",
      "model": "SurgeADSR",
      "params": [
        {
          "id": 0,
          "value": 0.292999983
        },
        {
          "id": 1,
          "value": 0.5
        },
        {
          "id": 2,
          "value": 0.5
        },
        {
          "id": 3,
          "value": 0.5
        },
        {
          "id": 4,
          "value": 0.0
        },
        {
          "id": 5,
          "value": 0.0
        },
        {
          "id": 6,
          "value": 0.0
        },
        {
          "id": 7,
          "value": 0.0
        }
      ],
      "data": {
        "comment": "No Comment",
        "buildVersion": "macos: 1.0-alpha.95180d5.b946ee3"
      },
      "leftModuleId": 26,
      "rightModuleId": 22,
      "id": 21,
      "pos": [
        22,
        0
      ]
    },
    {
      "plugin": "SurgeRack",
      "version": "1.0.0",
      "model": "SurgeOSC",
      "params": [
        {
          "id": 0,
          "value": 1.0
        },
        {
          "id": 1,
          "value": 0.0
        },
        {
          "id": 2,
          "value": 60.0
        },
        {
          "id": 3,
          "value": 0.0
        },
        {
          "id": 4,
          "value": 0.421999961
        },
        {
          "id": 5,
          "value": 0.58100009
        },
        {
          "id": 6,
          "value": 0.547999561
        },
        {
          "id": 7,
          "value": 0.0
        },
        {
          "id": 8,
          "value": 0.0
        },
        {
          "id": 9,
          "value": 0.143000081
        },
        {
          "id": 10,
          "value": 0.0484999977
        }
      ],
      "data": {
        "comment": "No Comment",
        "buildVersion": "macos: 1.0-alpha.95180d5.b946ee3"
      },
      "leftModuleId": 21,
      "rightModuleId": 23,
      "id": 22,
      "pos": [
        29,
        0
      ]
    },
    {
      "plugin": "Fundamental",
      "version": "1.0.0",
      "model": "VCA-1",
      "params": [
        {
          "id": 0,
          "value": 1.0
        },
        {
          "id": 1,
          "value": 1.0
        }
      ],
      "leftModuleId": 22,
      "rightModuleId": 24,
      "id": 23,
      "pos": [
        41,
        0
      ]
    },
    {
      "plugin": "Fundamental",
      "version": "1.0.0",
      "model": "VCA-1",
      "params": [
        {
          "id": 0,
          "value": 1.0
        },
        {
          "id": 1,
          "value": 1.0
        }
      ],
      "leftModuleId": 23,
      "rightModuleId": 29,
      "id": 24,
      "pos": [
        44,
        0
      ]
    },
    {
      "plugin": "Core",
      "version": "1.dev.ddf06a9",
      "model": "AudioInterface",
      "params": [],
      "data": {
        "audio": {
          "driver": 5,
          "deviceName": "Apple Inc.: DisplayPort",
          "offset": 0,
          "maxChannels": 8,
          "sampleRate": 44100,
          "blockSize": 256
        }
      },
      "leftModuleId": 28,
      "id": 25,
      "pos": [
        20,
        1
      ]
    },
    {
      "plugin": "SurgeRack",
      "version": "1.0.0",
      "model": "SurgeLFO",
      "params": [
        {
          "id": 0,
          "value": 0.640499055
        },
        {
          "id": 1,
          "value": 0.714285731
        },
        {
          "id": 2,
          "value": 0.0
        },
        {
          "id": 3,
          "value": 0.118500106
        },
        {
          "id": 4,
          "value": 0.483000189
        },
        {
          "id": 5,
          "value": 0.0
        },
        {
          "id": 6,
          "value": 0.0
        },
        {
          "id": 7,
          "value": 0.349499941
        },
        {
          "id": 8,
          "value": 0.122999981
        },
        {
          "id": 9,
          "value": 0.31099999
        },
        {
          "id": 10,
          "value": 0.430999964
        },
        {
          "id": 11,
          "value": 0.384499907
        },
        {
          "id": 12,
          "value": 0.58099997
        }
      ],
      "data": {
        "comment": "No Comment",
        "buildVersion": "macos: 1.0-alpha.95180d5.b946ee3"
      },
      "leftModuleId": 20,
      "rightModuleId": 21,
      "id": 26,
      "pos": [
        4,
        0
      ]
    },
    {
      "plugin": "Fundamental",
      "version": "1.0.0",
      "model": "VCMixer",
      "params": [
        {
          "id": 0,
          "value": 0.546999633
        },
        {
          "id": 1,
          "value": 1.0
        },
        {
          "id": 2,
          "value": 0.647860885
        },
        {
          "id": 3,
          "value": 0.36360392
        },
        {
          "id": 4,
          "value": 1.0
        }
      ],
      "rightModuleId": 28,
      "id": 27,
      "pos": [
        0,
        1
      ]
    },
    {
      "plugin": "Fundamental",
      "version": "1.0.0",
      "model": "VCMixer",
      "params": [
        {
          "id": 0,
          "value": 0.510999799
        },
        {
          "id": 1,
          "value": 1.0
        },
        {
          "id": 2,
          "value": 0.613919735
        },
        {
          "id": 3,
          "value": 0.456942022
        },
        {
          "id": 4,
          "value": 1.0
        }
      ],
      "leftModuleId": 27,
      "rightModuleId": 25,
      "id": 28,
      "pos": [
        10,
        1
      ]
    },
    {
      "plugin": "SurgeRack",
      "version": "1.0.0",
      "model": "SurgeDelay",
      "params": [
        {
          "id": 0,
          "value": 0.561499953
        },
        {
          "id": 1,
          "value": 0.461538464
        },
        {
          "id": 2,
          "value": 0.506538749
        },
        {
          "id": 3,
          "value": 0.277500004
        },
        {
          "id": 4,
          "value": 0.0
        },
        {
          "id": 5,
          "value": 0.194423094
        },
        {
          "id": 6,
          "value": 0.785307765
        },
        {
          "id": 7,
          "value": 0.3125
        },
        {
          "id": 8,
          "value": 0.0
        },
        {
          "id": 9,
          "value": 1.0
        },
        {
          "id": 10,
          "value": 0.5
        },
        {
          "id": 11,
          "value": 0.0
        },
        {
          "id": 12,
          "value": 0.0
        },
        {
          "id": 13,
          "value": 0.0
        },
        {
          "id": 14,
          "value": 0.0
        },
        {
          "id": 15,
          "value": 0.0
        },
        {
          "id": 16,
          "value": 0.0
        },
        {
          "id": 17,
          "value": 0.0
        },
        {
          "id": 18,
          "value": 0.0
        },
        {
          "id": 19,
          "value": 0.0
        },
        {
          "id": 20,
          "value": 0.0
        },
        {
          "id": 21,
          "value": 0.0
        },
        {
          "id": 22,
          "value": 0.0
        },
        {
          "id": 23,
          "value": 0.0
        },
        {
          "id": 24,
          "value": 1.0
        },
        {
          "id": 25,
          "value": 1.0
        },
        {
          "id": 26,
          "value": 0.0
        },
        {
          "id": 27,
          "value": 1.0
        },
        {
          "id": 28,
          "value": 1.0
        },
        {
          "id": 29,
          "value": 0.0
        },
        {
          "id": 30,
          "value": 0.0
        },
        {
          "id": 31,
          "value": 0.0
        },
        {
          "id": 32,
          "value": 0.0
        },
        {
          "id": 33,
          "value": 0.0
        },
        {
          "id": 34,
          "value": 0.0
        },
        {
          "id": 35,
          "value": 0.0
        },
        {
          "id": 36,
          "value": 0.0
        },
        {
          "id": 37,
          "value": 0.0
        },
        {
          "id": 38,
          "value": 1.0
        }
      ],
      "data": {
        "comment": "No Comment",
        "buildVersion": "macos: 1.0-alpha.95180d5.b946ee3"
      },
      "leftModuleId": 24,
      "rightModuleId": 30,
      "id": 29,
      "pos": [
        47,
        0
      ]
    },
    {
      "plugin": "SurgeRack",
      "version": "1.0.0",
      "model": "SurgeFreqShift",
      "params": [
        {
          "id": 0,
          "value": 0.665000439
        },
        {
          "id": 1,
          "value": 0.779499769
        },
        {
          "id": 2,
          "value": 0.0810000151
        },
        {
          "id": 3,
          "value": 0.609000385
        },
        {
          "id": 4,
          "value": 1.0
        },
        {
          "id": 5,
          "value": 0.0
        },
        {
          "id": 6,
          "value": 0.0
        },
        {
          "id": 7,
          "value": 0.0
        },
        {
          "id": 8,
          "value": 0.0
        },
        {
          "id": 9,
          "value": 0.0
        },
        {
          "id": 10,
          "value": 0.0
        },
        {
          "id": 11,
          "value": 0.0
        },
        {
          "id": 12,
          "value": 0.0
        },
        {
          "id": 13,
          "value": 0.0
        },
        {
          "id": 14,
          "value": 0.0
        },
        {
          "id": 15,
          "value": 0.0
        },
        {
          "id": 16,
          "value": 0.0
        },
        {
          "id": 17,
          "value": 0.0
        },
        {
          "id": 18,
          "value": 0.0
        },
        {
          "id": 19,
          "value": 0.0
        },
        {
          "id": 20,
          "value": 0.0
        },
        {
          "id": 21,
          "value": 0.0
        },
        {
          "id": 22,
          "value": 0.0
        },
        {
          "id": 23,
          "value": 0.0
        },
        {
          "id": 24,
          "value": 1.0
        },
        {
          "id": 25,
          "value": 1.0
        },
        {
          "id": 26,
          "value": 0.0
        },
        {
          "id": 27,
          "value": 0.0
        },
        {
          "id": 28,
          "value": 0.0
        },
        {
          "id": 29,
          "value": 0.0
        },
        {
          "id": 30,
          "value": 0.0
        },
        {
          "id": 31,
          "value": 0.0
        },
        {
          "id": 32,
          "value": 0.0
        },
        {
          "id": 33,
          "value": 0.0
        },
        {
          "id": 34,
          "value": 0.0
        },
        {
          "id": 35,
          "value": 0.0
        },
        {
          "id": 36,
          "value": 0.0
        },
        {
          "id": 37,
          "value": 0.0
        },
        {
          "id": 38,
          "value": 1.0
        }
      ],
      "data": {
        "comment": "No Comment",
        "buildVersion": "macos: 1.0-alpha.95180d5.b946ee3"
      },
      "leftModuleId": 29,
      "id": 30,
      "pos": [
        66,
        0
      ]
    }
  ],
  "id": 24,
  "cables": [
    {
      "outputModuleId": 20,
      "outputId": 1,
      "inputModuleId": 21,
      "inputId": 0,
      "color": "#c91847"
    },
    {
      "outputModuleId": 21,
      "outputId": 0,
      "inputModuleId": 23,
      "inputId": 0,
      "color": "#0986ad"
    },
    {
      "outputModuleId": 21,
      "outputId": 0,
      "inputModuleId": 24,
      "inputId": 0,
      "color": "#c9b70e"
    },
    {
      "outputModuleId": 22,
      "outputId": 0,
      "inputModuleId": 23,
      "inputId": 1,
      "color": "#0c8e15"
    },
    {
      "outputModuleId": 22,
      "outputId": 1,
      "inputModuleId": 24,
      "inputId": 1,
      "color": "#c91847"
    },
    {
      "outputModuleId": 26,
      "outputId": 0,
      "inputModuleId": 22,
      "inputId": 0,
      "color": "#0c8e15"
    },
    {
      "outputModuleId": 26,
      "outputId": 0,
      "inputModuleId": 22,
      "inputId": 3,
      "color": "#c91847"
    },
    {
      "outputModuleId": 20,
      "outputId": 1,
      "inputModuleId": 26,
      "inputId": 0,
      "color": "#0c8e15"
    },
    {
      "outputModuleId": 28,
      "outputId": 0,
      "inputModuleId": 25,
      "inputId": 1,
      "color": "#c91847"
    },
    {
      "outputModuleId": 27,
      "outputId": 0,
      "inputModuleId": 25,
      "inputId": 0,
      "color": "#0986ad"
    },
    {
      "outputModuleId": 23,
      "outputId": 0,
      "inputModuleId": 27,
      "inputId": 1,
      "color": "#c9b70e"
    },
    {
      "outputModuleId": 24,
      "outputId": 0,
      "inputModuleId": 28,
      "inputId": 1,
      "color": "#0c8e15"
    },
    {
      "outputModuleId": 20,
      "outputId": 0,
      "inputModuleId": 29,
      "inputId": 14,
      "color": "#c91847"
    },
    {
      "outputModuleId": 24,
      "outputId": 0,
      "inputModuleId": 29,
      "inputId": 1,
      "color": "#0986ad"
    },
    {
      "outputModuleId": 23,
      "outputId": 0,
      "inputModuleId": 29,
      "inputId": 0,
      "color": "#c9b70e"
    },
    {
      "outputModuleId": 29,
      "outputId": 1,
      "inputModuleId": 28,
      "inputId": 2,
      "color": "#0c8e15"
    },
    {
      "outputModuleId": 29,
      "outputId": 0,
      "inputModuleId": 27,
      "inputId": 2,
      "color": "#c91847"
    },
    {
      "outputModuleId": 26,
      "outputId": 0,
      "inputModuleId": 29,
      "inputId": 8,
      "color": "#0986ad"
    },
    {
      "outputModuleId": 23,
      "outputId": 0,
      "inputModuleId": 30,
      "inputId": 0,
      "color": "#0c8e15"
    },
    {
      "outputModuleId": 24,
      "outputId": 0,
      "inputModuleId": 30,
      "inputId": 1,
      "color": "#c91847"
    },
    {
      "outputModuleId": 30,
      "outputId": 1,
      "inputModuleId": 28,
      "inputId": 3,
      "color": "#0986ad"
    },
    {
      "outputModuleId": 30,
      "outputId": 0,
      "inputModuleId": 27,
      "inputId": 3,
      "color": "#c9b70e"
    }
  ]
}