{
  "version": "1.dev.faa9606",
  "modules": [
    {
      "plugin": "Fundamental",
      "version": "1.0.0",
      "model": "ADSR",
      "params": [
        {
          "value": 0.0825000033
        },
        {
          "value": 0.585500002
        },
        {
          "value": 0.311000139
        },
        {
          "value": 0.609499812
        }
      ],
      "leftModuleId": 26,
      "rightModuleId": 20,
      "id": 19,
      "pos": [
        32,
        0
      ]
    },
    {
      "plugin": "Fundamental",
      "version": "1.0.0",
      "model": "VCA-1",
      "params": [
        {
          "value": 1.0
        },
        {
          "value": 1.0
        }
      ],
      "leftModuleId": 19,
      "id": 20,
      "pos": [
        40,
        0
      ]
    },
    {
      "plugin": "Core",
      "version": "1.dev.faa9606",
      "model": "AudioInterface",
      "params": [],
      "data": {
        "audio": {
          "driver": 5,
          "deviceName": "Apple Inc.: DisplayPort",
          "offset": 0,
          "maxChannels": 8,
          "sampleRate": 44100,
          "blockSize": 256
        }
      },
      "leftModuleId": 28,
      "rightModuleId": 27,
      "id": 22,
      "pos": [
        20,
        1
      ]
    },
    {
      "plugin": "Fundamental",
      "version": "1.0.0",
      "model": "VCMixer",
      "params": [
        {
          "value": 1.0
        },
        {
          "value": 0.712763131
        },
        {
          "value": 0.950351536
        },
        {
          "value": 0.780645788
        },
        {
          "value": 1.0
        }
      ],
      "rightModuleId": 28,
      "id": 23,
      "pos": [
        0,
        1
      ]
    },
    {
      "plugin": "Fundamental",
      "version": "1.0.0",
      "model": "SEQ3",
      "params": [
        {
          "value": 2.87600064
        },
        {
          "value": 0.0
        },
        {
          "value": 0.0
        },
        {
          "value": 8.0
        },
        {
          "value": 0.0
        },
        {
          "value": 0.0
        },
        {
          "value": 1.87499881
        },
        {
          "value": 1.58999765
        },
        {
          "value": 0.0
        },
        {
          "value": 0.869999886
        },
        {
          "value": 1.01999998
        },
        {
          "value": 1.77000022
        },
        {
          "value": 0.0
        },
        {
          "value": 0.0
        },
        {
          "value": 0.0
        },
        {
          "value": 0.0
        },
        {
          "value": 0.0
        },
        {
          "value": 0.0
        },
        {
          "value": 0.0
        },
        {
          "value": 0.0
        },
        {
          "value": 0.0
        },
        {
          "value": 0.0
        },
        {
          "value": 0.0
        },
        {
          "value": 0.0
        },
        {
          "value": 0.0
        },
        {
          "value": 0.0
        },
        {
          "value": 0.0
        },
        {
          "value": 0.0
        },
        {
          "value": 0.0
        },
        {
          "value": 0.0
        },
        {
          "value": 0.0
        },
        {
          "value": 0.0
        },
        {
          "value": 0.0
        },
        {
          "value": 0.0
        },
        {
          "value": 0.0
        },
        {
          "value": 0.0
        }
      ],
      "data": {
        "running": true,
        "gates": [
          1,
          0,
          0,
          0,
          0,
          0,
          0,
          0
        ]
      },
      "rightModuleId": 26,
      "id": 25,
      "pos": [
        0,
        0
      ]
    },
    {
      "plugin": "Fundamental",
      "version": "1.0.0",
      "model": "VCO",
      "params": [
        {
          "value": 1.0
        },
        {
          "value": 0.0
        },
        {
          "value": -5.34599924
        },
        {
          "value": 0.0120000001
        },
        {
          "value": 0.0
        },
        {
          "value": 0.5
        },
        {
          "value": 0.0
        }
      ],
      "leftModuleId": 25,
      "rightModuleId": 19,
      "id": 26,
      "pos": [
        22,
        0
      ]
    },
    {
      "plugin": "Fundamental",
      "version": "1.0.0",
      "model": "Scope",
      "params": [
        {
          "value": 0.0
        },
        {
          "value": 0.0
        },
        {
          "value": -0.0
        },
        {
          "value": -0.240000576
        },
        {
          "value": 8.92999172
        },
        {
          "value": 0.0
        },
        {
          "value": 0.0
        },
        {
          "value": 0.0
        }
      ],
      "data": {
        "lissajous": 0,
        "external": 0
      },
      "leftModuleId": 22,
      "rightModuleId": 29,
      "id": 27,
      "pos": [
        30,
        1
      ]
    },
    {
      "plugin": "Fundamental",
      "version": "1.0.0",
      "model": "VCMixer",
      "params": [
        {
          "value": 1.0
        },
        {
          "value": 0.68180126
        },
        {
          "value": 0.924896121
        },
        {
          "value": 1.0
        },
        {
          "value": 1.0
        }
      ],
      "leftModuleId": 23,
      "rightModuleId": 22,
      "id": 28,
      "pos": [
        10,
        1
      ]
    },
    {
      "plugin": "SurgeRack",
      "version": "1.0.0",
      "model": "SurgeFX",
      "params": [
        {
          "value": 1.0
        },
        {
          "value": 0.597000599
        },
        {
          "value": 0.673499703
        },
        {
          "value": 0.394500107
        },
        {
          "value": 0.849499583
        },
        {
          "value": 0.122999698
        },
        {
          "value": 0.323499531
        },
        {
          "value": 0.623000205
        },
        {
          "value": 0.573000312
        },
        {
          "value": 0.650999904
        },
        {
          "value": 0.681000173
        },
        {
          "value": 0.499000072
        },
        {
          "value": 0.0
        }
      ],
      "leftModuleId": 27,
      "id": 29,
      "pos": [
        43,
        1
      ]
    }
  ],
  "id": 13,
  "cables": [
    {
      "outputModuleId": 19,
      "outputId": 0,
      "inputModuleId": 20,
      "inputId": 0,
      "color": "#0986ad"
    },
    {
      "outputModuleId": 23,
      "outputId": 0,
      "inputModuleId": 22,
      "inputId": 0,
      "color": "#0c8e15"
    },
    {
      "outputModuleId": 25,
      "outputId": 0,
      "inputModuleId": 19,
      "inputId": 4,
      "color": "#c9b70e"
    },
    {
      "outputModuleId": 25,
      "outputId": 1,
      "inputModuleId": 26,
      "inputId": 0,
      "color": "#0c8e15"
    },
    {
      "outputModuleId": 20,
      "outputId": 0,
      "inputModuleId": 23,
      "inputId": 1,
      "color": "#0986ad"
    },
    {
      "outputModuleId": 20,
      "outputId": 0,
      "inputModuleId": 27,
      "inputId": 0,
      "color": "#c91847"
    },
    {
      "outputModuleId": 20,
      "outputId": 0,
      "inputModuleId": 28,
      "inputId": 1,
      "color": "#c91847"
    },
    {
      "outputModuleId": 28,
      "outputId": 0,
      "inputModuleId": 22,
      "inputId": 1,
      "color": "#0c8e15"
    },
    {
      "outputModuleId": 23,
      "outputId": 0,
      "inputModuleId": 27,
      "inputId": 1,
      "color": "#0986ad"
    },
    {
      "outputModuleId": 20,
      "outputId": 0,
      "inputModuleId": 29,
      "inputId": 1,
      "color": "#0986ad"
    },
    {
      "outputModuleId": 29,
      "outputId": 0,
      "inputModuleId": 23,
      "inputId": 2,
      "color": "#c9b70e"
    },
    {
      "outputModuleId": 29,
      "outputId": 1,
      "inputModuleId": 28,
      "inputId": 2,
      "color": "#c91847"
    },
    {
      "outputModuleId": 26,
      "outputId": 1,
      "inputModuleId": 20,
      "inputId": 1,
      "color": "#c91847"
    },
    {
      "outputModuleId": 20,
      "outputId": 0,
      "inputModuleId": 29,
      "inputId": 0,
      "color": "#0c8e15"
    }
  ]
}