{
  "version": "1.dev.faa9606",
  "modules": [
    {
      "plugin": "SurgeRack",
      "version": "1.0.0",
      "model": "SurgeFX",
      "params": [],
      "leftModuleId": 20,
      "id": 16,
      "pos": [
        43,
        0
      ]
    },
    {
      "plugin": "Fundamental",
      "version": "1.0.0",
      "model": "ADSR",
      "params": [
        {
          "value": 0.0
        },
        {
          "value": 0.585500002
        },
        {
          "value": 0.311000139
        },
        {
          "value": 0.609499812
        }
      ],
      "leftModuleId": 26,
      "rightModuleId": 20,
      "id": 19,
      "pos": [
        32,
        0
      ]
    },
    {
      "plugin": "Fundamental",
      "version": "1.0.0",
      "model": "VCA-1",
      "params": [
        {
          "value": 1.0
        },
        {
          "value": 1.0
        }
      ],
      "leftModuleId": 19,
      "rightModuleId": 16,
      "id": 20,
      "pos": [
        40,
        0
      ]
    },
    {
      "plugin": "Core",
      "version": "1.dev.faa9606",
      "model": "AudioInterface",
      "params": [],
      "data": {
        "audio": {
          "driver": 5,
          "deviceName": "Apple Inc.: DisplayPort",
          "offset": 0,
          "maxChannels": 8,
          "sampleRate": 44100,
          "blockSize": 256
        }
      },
      "leftModuleId": 23,
      "id": 22,
      "pos": [
        77,
        0
      ]
    },
    {
      "plugin": "Fundamental",
      "version": "1.0.0",
      "model": "VCMixer",
      "params": [
        {
          "value": 1.0
        },
        {
          "value": 0.282993913
        },
        {
          "value": 1.0
        },
        {
          "value": 1.0
        },
        {
          "value": 1.0
        }
      ],
      "rightModuleId": 22,
      "id": 23,
      "pos": [
        67,
        0
      ]
    },
    {
      "plugin": "Fundamental",
      "version": "1.0.0",
      "model": "SEQ3",
      "params": [
        {
          "value": 1.44800055
        },
        {
          "value": 0.0
        },
        {
          "value": 0.0
        },
        {
          "value": 8.0
        },
        {
          "value": 0.404999971
        },
        {
          "value": 0.0
        },
        {
          "value": 0.449999928
        },
        {
          "value": 0.135000005
        },
        {
          "value": 0.0
        },
        {
          "value": 0.869999886
        },
        {
          "value": 1.01999998
        },
        {
          "value": 2.14500022
        },
        {
          "value": 0.0
        },
        {
          "value": 0.0
        },
        {
          "value": 0.0
        },
        {
          "value": 0.0
        },
        {
          "value": 0.0
        },
        {
          "value": 0.0
        },
        {
          "value": 0.0
        },
        {
          "value": 0.0
        },
        {
          "value": 0.0
        },
        {
          "value": 0.0
        },
        {
          "value": 0.0
        },
        {
          "value": 0.0
        },
        {
          "value": 0.0
        },
        {
          "value": 0.0
        },
        {
          "value": 0.0
        },
        {
          "value": 0.0
        },
        {
          "value": 0.0
        },
        {
          "value": 0.0
        },
        {
          "value": 0.0
        },
        {
          "value": 0.0
        },
        {
          "value": 0.0
        },
        {
          "value": 0.0
        },
        {
          "value": 0.0
        },
        {
          "value": 0.0
        }
      ],
      "data": {
        "running": true,
        "gates": [
          1,
          0,
          1,
          0,
          0,
          1,
          0,
          1
        ]
      },
      "rightModuleId": 26,
      "id": 25,
      "pos": [
        0,
        0
      ]
    },
    {
      "plugin": "Fundamental",
      "version": "1.0.0",
      "model": "VCO",
      "params": [
        {
          "value": 1.0
        },
        {
          "value": 1.0
        },
        {
          "value": 0.0
        },
        {
          "value": 0.0
        },
        {
          "value": 0.0
        },
        {
          "value": 0.5
        },
        {
          "value": 0.0
        }
      ],
      "leftModuleId": 25,
      "rightModuleId": 19,
      "id": 26,
      "pos": [
        22,
        0
      ]
    }
  ],
  "id": 12,
  "cables": [
    {
      "outputModuleId": 19,
      "outputId": 0,
      "inputModuleId": 20,
      "inputId": 0,
      "color": "#0986ad"
    },
    {
      "outputModuleId": 20,
      "outputId": 0,
      "inputModuleId": 23,
      "inputId": 1,
      "color": "#c91847"
    },
    {
      "outputModuleId": 23,
      "outputId": 0,
      "inputModuleId": 22,
      "inputId": 0,
      "color": "#0c8e15"
    },
    {
      "outputModuleId": 23,
      "outputId": 0,
      "inputModuleId": 22,
      "inputId": 1,
      "color": "#0986ad"
    },
    {
      "outputModuleId": 25,
      "outputId": 0,
      "inputModuleId": 19,
      "inputId": 4,
      "color": "#c9b70e"
    },
    {
      "outputModuleId": 26,
      "outputId": 2,
      "inputModuleId": 20,
      "inputId": 1,
      "color": "#c91847"
    },
    {
      "outputModuleId": 25,
      "outputId": 1,
      "inputModuleId": 26,
      "inputId": 0,
      "color": "#0c8e15"
    }
  ]
}